# xmcd
#
# Track frame offsets: 
#        150
#        12269
#        35087
#        51773
#        65643
#        80025
#        96113
#        113360
#        131653
#        144904
#
# Disc length: 2130 seconds
#
# Revision: 0
# Processed by: cddbd v1.5.2PL0 Copyright (c) Steve Scherf et al.
# Submitted via: ExactAudioCopy v0.99pb4
#
DISCID=8308500a
DTITLE=SONiA and disappear fear - Blood, Bones and Baltimore
DYEAR=2010
DGENRE=Blues
TTITLE0=Honey Money
TTITLE1=Biggest Baddest Heart
TTITLE2=Gimme the Keys
TTITLE3=Don't Make Me Wrong
TTITLE4=Pack of Newport
TTITLE5=Don't Waste My Crime
TTITLE6=You Got Me
TTITLE7=Who I Am (say amen)
TTITLE8=Call Me Sonia
TTITLE9=Worried Man Blues [Woody Guthrie]
EXTD=
EXTT0=
EXTT1=
EXTT2=
EXTT3=
EXTT4=
EXTT5=
EXTT6=
EXTT7=
EXTT8=
EXTT9=
PLAYORDER=
